<mxfile host="app.diagrams.net" modified="2021-05-04T20:00:55.288Z" agent="5.0 (Windows NT 10.0; Win64; x64) AppleWebKit/537.36 (KHTML, like Gecko) Chrome/90.0.4430.85 Safari/537.36 Edg/90.0.818.46" etag="1XDBWlEzpm_NZTCcIOqz" version="14.6.10" type="github">
  <diagram id="kgpKYQtTHZ0yAKxKKP6v" name="Page-1">
    <mxGraphModel dx="2523" dy="934" grid="1" gridSize="10" guides="1" tooltips="1" connect="1" arrows="1" fold="1" page="1" pageScale="1" pageWidth="850" pageHeight="1100" math="0" shadow="0">
      <root>
        <mxCell id="0" />
        <mxCell id="1" parent="0" />
        <mxCell id="0U-KoFeszgr7jK1-Ih7c-1" value="Information Flows" style="swimlane;align=right;fontSize=20;" vertex="1" parent="1">
          <mxGeometry x="-600" y="40" width="1380" height="290" as="geometry">
            <mxRectangle x="-600" y="40" width="140" height="23" as="alternateBounds" />
          </mxGeometry>
        </mxCell>
        <mxCell id="0U-KoFeszgr7jK1-Ih7c-144" style="edgeStyle=orthogonalEdgeStyle;rounded=0;orthogonalLoop=1;jettySize=auto;html=1;entryX=1;entryY=0.25;entryDx=0;entryDy=0;fontSize=20;" edge="1" parent="0U-KoFeszgr7jK1-Ih7c-1" source="0U-KoFeszgr7jK1-Ih7c-6" target="0U-KoFeszgr7jK1-Ih7c-42">
          <mxGeometry relative="1" as="geometry">
            <Array as="points">
              <mxPoint x="1200" y="65" />
            </Array>
          </mxGeometry>
        </mxCell>
        <mxCell id="0U-KoFeszgr7jK1-Ih7c-145" value="&lt;font style=&quot;font-size: 12px&quot;&gt;Requests&lt;/font&gt;" style="edgeLabel;html=1;align=center;verticalAlign=middle;resizable=0;points=[];fontSize=20;" vertex="1" connectable="0" parent="0U-KoFeszgr7jK1-Ih7c-144">
          <mxGeometry x="-0.1933" y="-3" relative="1" as="geometry">
            <mxPoint x="-1" y="-12" as="offset" />
          </mxGeometry>
        </mxCell>
        <mxCell id="0U-KoFeszgr7jK1-Ih7c-6" value="Customer" style="shape=cube;whiteSpace=wrap;html=1;boundedLbl=1;backgroundOutline=1;darkOpacity=0.05;darkOpacity2=0.1;fillColor=#dae8fc;strokeColor=#6c8ebf;" vertex="1" parent="0U-KoFeszgr7jK1-Ih7c-1">
          <mxGeometry x="1150" y="150" width="120" height="80" as="geometry" />
        </mxCell>
        <mxCell id="0U-KoFeszgr7jK1-Ih7c-9" value="Supplier" style="shape=cube;whiteSpace=wrap;html=1;boundedLbl=1;backgroundOutline=1;darkOpacity=0.05;darkOpacity2=0.1;fillColor=#d5e8d4;strokeColor=#82b366;" vertex="1" parent="0U-KoFeszgr7jK1-Ih7c-1">
          <mxGeometry x="30" y="90" width="120" height="80" as="geometry" />
        </mxCell>
        <mxCell id="0U-KoFeszgr7jK1-Ih7c-45" style="edgeStyle=orthogonalEdgeStyle;rounded=0;orthogonalLoop=1;jettySize=auto;html=1;entryX=0;entryY=0;entryDx=120;entryDy=50;entryPerimeter=0;" edge="1" parent="0U-KoFeszgr7jK1-Ih7c-1" source="0U-KoFeszgr7jK1-Ih7c-42" target="0U-KoFeszgr7jK1-Ih7c-9">
          <mxGeometry relative="1" as="geometry" />
        </mxCell>
        <mxCell id="0U-KoFeszgr7jK1-Ih7c-46" value="Approved Requests" style="edgeLabel;html=1;align=center;verticalAlign=middle;resizable=0;points=[];" vertex="1" connectable="0" parent="0U-KoFeszgr7jK1-Ih7c-45">
          <mxGeometry x="0.0476" y="-1" relative="1" as="geometry">
            <mxPoint as="offset" />
          </mxGeometry>
        </mxCell>
        <mxCell id="0U-KoFeszgr7jK1-Ih7c-149" style="edgeStyle=orthogonalEdgeStyle;rounded=0;orthogonalLoop=1;jettySize=auto;html=1;exitX=0.75;exitY=1;exitDx=0;exitDy=0;entryX=0;entryY=0;entryDx=0;entryDy=52.5;entryPerimeter=0;fontSize=20;" edge="1" parent="0U-KoFeszgr7jK1-Ih7c-1" source="0U-KoFeszgr7jK1-Ih7c-42" target="0U-KoFeszgr7jK1-Ih7c-141">
          <mxGeometry relative="1" as="geometry" />
        </mxCell>
        <mxCell id="0U-KoFeszgr7jK1-Ih7c-150" value="&lt;font style=&quot;font-size: 12px&quot;&gt;Costing&lt;/font&gt;" style="edgeLabel;html=1;align=center;verticalAlign=middle;resizable=0;points=[];fontSize=20;" vertex="1" connectable="0" parent="0U-KoFeszgr7jK1-Ih7c-149">
          <mxGeometry x="0.2" y="2" relative="1" as="geometry">
            <mxPoint x="17" y="-20" as="offset" />
          </mxGeometry>
        </mxCell>
        <mxCell id="0U-KoFeszgr7jK1-Ih7c-42" value="Project Manager" style="rounded=0;whiteSpace=wrap;html=1;" vertex="1" parent="0U-KoFeszgr7jK1-Ih7c-1">
          <mxGeometry x="510" y="50" width="120" height="60" as="geometry" />
        </mxCell>
        <mxCell id="0U-KoFeszgr7jK1-Ih7c-130" style="edgeStyle=orthogonalEdgeStyle;rounded=0;orthogonalLoop=1;jettySize=auto;html=1;fontSize=20;" edge="1" parent="0U-KoFeszgr7jK1-Ih7c-1" source="0U-KoFeszgr7jK1-Ih7c-48" target="0U-KoFeszgr7jK1-Ih7c-129">
          <mxGeometry relative="1" as="geometry" />
        </mxCell>
        <mxCell id="0U-KoFeszgr7jK1-Ih7c-48" value="Gantt Chart&lt;br&gt;Budget&lt;br&gt;Mgmt update" style="rounded=0;whiteSpace=wrap;html=1;" vertex="1" parent="0U-KoFeszgr7jK1-Ih7c-1">
          <mxGeometry x="210" y="200" width="120" height="60" as="geometry" />
        </mxCell>
        <mxCell id="0U-KoFeszgr7jK1-Ih7c-62" value="Weekly" style="shape=mxgraph.lean_mapping.electronic_info_flow_edge;html=1;rounded=0;edgeStyle=orthogonalEdgeStyle;exitX=0.25;exitY=1;exitDx=0;exitDy=0;" edge="1" parent="0U-KoFeszgr7jK1-Ih7c-1" source="0U-KoFeszgr7jK1-Ih7c-42" target="0U-KoFeszgr7jK1-Ih7c-48">
          <mxGeometry width="100" height="100" relative="1" as="geometry">
            <mxPoint x="670" y="370" as="sourcePoint" />
            <mxPoint x="770" y="270" as="targetPoint" />
          </mxGeometry>
        </mxCell>
        <mxCell id="0U-KoFeszgr7jK1-Ih7c-65" value="" style="endArrow=none;dashed=1;html=1;rounded=0;edgeStyle=orthogonalEdgeStyle;entryX=0.5;entryY=1;entryDx=0;entryDy=0;exitX=0.5;exitY=0;exitDx=0;exitDy=0;exitPerimeter=0;" edge="1" parent="0U-KoFeszgr7jK1-Ih7c-1" source="0U-KoFeszgr7jK1-Ih7c-129" target="0U-KoFeszgr7jK1-Ih7c-42">
          <mxGeometry width="50" height="50" relative="1" as="geometry">
            <mxPoint x="570" y="200" as="sourcePoint" />
            <mxPoint x="740" y="290" as="targetPoint" />
          </mxGeometry>
        </mxCell>
        <mxCell id="0U-KoFeszgr7jK1-Ih7c-129" value="PDM" style="shape=cylinder3;whiteSpace=wrap;html=1;boundedLbl=1;backgroundOutline=1;size=15;fontSize=20;align=center;" vertex="1" parent="0U-KoFeszgr7jK1-Ih7c-1">
          <mxGeometry x="510" y="180" width="60" height="80" as="geometry" />
        </mxCell>
        <mxCell id="0U-KoFeszgr7jK1-Ih7c-142" style="edgeStyle=orthogonalEdgeStyle;rounded=0;orthogonalLoop=1;jettySize=auto;html=1;exitX=0.5;exitY=0;exitDx=0;exitDy=0;entryX=1;entryY=0.5;entryDx=0;entryDy=0;fontSize=20;" edge="1" parent="0U-KoFeszgr7jK1-Ih7c-1" source="0U-KoFeszgr7jK1-Ih7c-134" target="0U-KoFeszgr7jK1-Ih7c-42">
          <mxGeometry relative="1" as="geometry" />
        </mxCell>
        <mxCell id="0U-KoFeszgr7jK1-Ih7c-143" value="Approved Opportunity" style="edgeLabel;html=1;align=center;verticalAlign=middle;resizable=0;points=[];fontSize=20;" vertex="1" connectable="0" parent="0U-KoFeszgr7jK1-Ih7c-142">
          <mxGeometry x="0.0333" y="2" relative="1" as="geometry">
            <mxPoint as="offset" />
          </mxGeometry>
        </mxCell>
        <mxCell id="0U-KoFeszgr7jK1-Ih7c-134" value="&lt;font style=&quot;font-size: 12px&quot;&gt;BDM Qualification&lt;/font&gt;" style="shape=process;whiteSpace=wrap;html=1;backgroundOutline=1;fontSize=20;align=center;" vertex="1" parent="0U-KoFeszgr7jK1-Ih7c-1">
          <mxGeometry x="900" y="170" width="120" height="60" as="geometry" />
        </mxCell>
        <mxCell id="0U-KoFeszgr7jK1-Ih7c-132" style="edgeStyle=orthogonalEdgeStyle;rounded=0;orthogonalLoop=1;jettySize=auto;html=1;fontSize=20;entryX=1;entryY=0.5;entryDx=0;entryDy=0;" edge="1" parent="0U-KoFeszgr7jK1-Ih7c-1" source="0U-KoFeszgr7jK1-Ih7c-6" target="0U-KoFeszgr7jK1-Ih7c-134">
          <mxGeometry relative="1" as="geometry">
            <mxPoint x="960" y="190" as="targetPoint" />
          </mxGeometry>
        </mxCell>
        <mxCell id="0U-KoFeszgr7jK1-Ih7c-135" value="BDM" style="rounded=0;whiteSpace=wrap;html=1;" vertex="1" parent="0U-KoFeszgr7jK1-Ih7c-1">
          <mxGeometry x="900" y="230" width="120" height="30" as="geometry" />
        </mxCell>
        <mxCell id="0U-KoFeszgr7jK1-Ih7c-151" style="edgeStyle=orthogonalEdgeStyle;rounded=0;orthogonalLoop=1;jettySize=auto;html=1;exitX=1;exitY=0.5;exitDx=0;exitDy=0;exitPerimeter=0;entryX=0;entryY=0.75;entryDx=0;entryDy=0;fontSize=20;" edge="1" parent="0U-KoFeszgr7jK1-Ih7c-1" source="0U-KoFeszgr7jK1-Ih7c-141" target="0U-KoFeszgr7jK1-Ih7c-135">
          <mxGeometry relative="1" as="geometry" />
        </mxCell>
        <mxCell id="0U-KoFeszgr7jK1-Ih7c-141" value="CRM" style="shape=cylinder3;whiteSpace=wrap;html=1;boundedLbl=1;backgroundOutline=1;size=15;fontSize=20;align=center;" vertex="1" parent="0U-KoFeszgr7jK1-Ih7c-1">
          <mxGeometry x="760" y="190" width="60" height="80" as="geometry" />
        </mxCell>
        <mxCell id="0U-KoFeszgr7jK1-Ih7c-147" style="edgeStyle=orthogonalEdgeStyle;rounded=0;orthogonalLoop=1;jettySize=auto;html=1;fontSize=20;" edge="1" parent="0U-KoFeszgr7jK1-Ih7c-1" source="0U-KoFeszgr7jK1-Ih7c-146" target="0U-KoFeszgr7jK1-Ih7c-141">
          <mxGeometry relative="1" as="geometry">
            <Array as="points">
              <mxPoint x="720" y="170" />
              <mxPoint x="790" y="170" />
            </Array>
          </mxGeometry>
        </mxCell>
        <mxCell id="0U-KoFeszgr7jK1-Ih7c-148" value="&lt;font style=&quot;font-size: 12px&quot;&gt;Costing&lt;/font&gt;" style="edgeLabel;html=1;align=center;verticalAlign=middle;resizable=0;points=[];fontSize=20;" vertex="1" connectable="0" parent="0U-KoFeszgr7jK1-Ih7c-147">
          <mxGeometry x="-0.36" y="-4" relative="1" as="geometry">
            <mxPoint x="-52" y="6" as="offset" />
          </mxGeometry>
        </mxCell>
        <mxCell id="0U-KoFeszgr7jK1-Ih7c-146" value="&lt;font style=&quot;font-size: 12px&quot;&gt;Supply Chain&lt;/font&gt;" style="rounded=0;whiteSpace=wrap;html=1;fontSize=20;align=center;" vertex="1" parent="0U-KoFeszgr7jK1-Ih7c-1">
          <mxGeometry x="660" y="100" width="120" height="60" as="geometry" />
        </mxCell>
        <mxCell id="0U-KoFeszgr7jK1-Ih7c-152" style="edgeStyle=orthogonalEdgeStyle;rounded=0;orthogonalLoop=1;jettySize=auto;html=1;fontSize=20;" edge="1" parent="0U-KoFeszgr7jK1-Ih7c-1" target="0U-KoFeszgr7jK1-Ih7c-6">
          <mxGeometry relative="1" as="geometry">
            <mxPoint x="1025" y="255" as="sourcePoint" />
            <mxPoint x="1095" y="230" as="targetPoint" />
            <Array as="points">
              <mxPoint x="1180" y="255" />
            </Array>
          </mxGeometry>
        </mxCell>
        <mxCell id="0U-KoFeszgr7jK1-Ih7c-153" value="Proposal" style="edgeLabel;html=1;align=center;verticalAlign=middle;resizable=0;points=[];fontSize=20;" vertex="1" connectable="0" parent="0U-KoFeszgr7jK1-Ih7c-152">
          <mxGeometry x="-0.3474" y="-1" relative="1" as="geometry">
            <mxPoint y="14" as="offset" />
          </mxGeometry>
        </mxCell>
        <mxCell id="0U-KoFeszgr7jK1-Ih7c-35" value="Product Flow" style="swimlane;align=right;fontSize=20;" vertex="1" parent="1">
          <mxGeometry x="-600" y="430" width="1380" height="310" as="geometry" />
        </mxCell>
        <mxCell id="0U-KoFeszgr7jK1-Ih7c-84" style="edgeStyle=orthogonalEdgeStyle;rounded=0;orthogonalLoop=1;jettySize=auto;html=1;entryX=0;entryY=0.5;entryDx=0;entryDy=0;fontSize=12;" edge="1" parent="0U-KoFeszgr7jK1-Ih7c-35" source="0U-KoFeszgr7jK1-Ih7c-49" target="0U-KoFeszgr7jK1-Ih7c-50">
          <mxGeometry relative="1" as="geometry" />
        </mxCell>
        <mxCell id="0U-KoFeszgr7jK1-Ih7c-85" value="Drawing" style="edgeLabel;html=1;align=center;verticalAlign=middle;resizable=0;points=[];fontSize=12;" vertex="1" connectable="0" parent="0U-KoFeszgr7jK1-Ih7c-84">
          <mxGeometry x="-0.2321" y="-2" relative="1" as="geometry">
            <mxPoint x="9" y="-12" as="offset" />
          </mxGeometry>
        </mxCell>
        <mxCell id="0U-KoFeszgr7jK1-Ih7c-49" value="Design" style="shape=process;whiteSpace=wrap;html=1;backgroundOutline=1;" vertex="1" parent="0U-KoFeszgr7jK1-Ih7c-35">
          <mxGeometry x="230" y="70" width="120" height="60" as="geometry" />
        </mxCell>
        <mxCell id="0U-KoFeszgr7jK1-Ih7c-82" style="edgeStyle=orthogonalEdgeStyle;rounded=0;orthogonalLoop=1;jettySize=auto;html=1;entryX=0;entryY=0.5;entryDx=0;entryDy=0;fontSize=16;" edge="1" parent="0U-KoFeszgr7jK1-Ih7c-35" source="0U-KoFeszgr7jK1-Ih7c-50" target="0U-KoFeszgr7jK1-Ih7c-51">
          <mxGeometry relative="1" as="geometry" />
        </mxCell>
        <mxCell id="0U-KoFeszgr7jK1-Ih7c-83" value="Prototype" style="edgeLabel;html=1;align=center;verticalAlign=middle;resizable=0;points=[];fontSize=12;" vertex="1" connectable="0" parent="0U-KoFeszgr7jK1-Ih7c-82">
          <mxGeometry x="-0.2893" y="1" relative="1" as="geometry">
            <mxPoint x="11" y="-9" as="offset" />
          </mxGeometry>
        </mxCell>
        <mxCell id="0U-KoFeszgr7jK1-Ih7c-50" value="Develop" style="shape=process;whiteSpace=wrap;html=1;backgroundOutline=1;" vertex="1" parent="0U-KoFeszgr7jK1-Ih7c-35">
          <mxGeometry x="430" y="70" width="120" height="60" as="geometry" />
        </mxCell>
        <mxCell id="0U-KoFeszgr7jK1-Ih7c-79" style="edgeStyle=orthogonalEdgeStyle;rounded=0;orthogonalLoop=1;jettySize=auto;html=1;entryX=0;entryY=0.5;entryDx=0;entryDy=0;fontSize=16;" edge="1" parent="0U-KoFeszgr7jK1-Ih7c-35" source="0U-KoFeszgr7jK1-Ih7c-51" target="0U-KoFeszgr7jK1-Ih7c-52">
          <mxGeometry relative="1" as="geometry" />
        </mxCell>
        <mxCell id="0U-KoFeszgr7jK1-Ih7c-81" value="&lt;font style=&quot;font-size: 11px&quot;&gt;Test Report&lt;/font&gt;" style="edgeLabel;html=1;align=center;verticalAlign=middle;resizable=0;points=[];fontSize=16;" vertex="1" connectable="0" parent="0U-KoFeszgr7jK1-Ih7c-79">
          <mxGeometry x="-0.22" y="2" relative="1" as="geometry">
            <mxPoint x="11" y="-8" as="offset" />
          </mxGeometry>
        </mxCell>
        <mxCell id="0U-KoFeszgr7jK1-Ih7c-51" value="Test" style="shape=process;whiteSpace=wrap;html=1;backgroundOutline=1;" vertex="1" parent="0U-KoFeszgr7jK1-Ih7c-35">
          <mxGeometry x="630" y="70" width="120" height="60" as="geometry" />
        </mxCell>
        <mxCell id="0U-KoFeszgr7jK1-Ih7c-52" value="Production" style="shape=process;whiteSpace=wrap;html=1;backgroundOutline=1;" vertex="1" parent="0U-KoFeszgr7jK1-Ih7c-35">
          <mxGeometry x="850" y="70" width="120" height="60" as="geometry" />
        </mxCell>
        <mxCell id="0U-KoFeszgr7jK1-Ih7c-70" value="AE/PDE" style="rounded=0;whiteSpace=wrap;html=1;" vertex="1" parent="0U-KoFeszgr7jK1-Ih7c-35">
          <mxGeometry x="230" y="130" width="120" height="30" as="geometry" />
        </mxCell>
        <mxCell id="0U-KoFeszgr7jK1-Ih7c-71" value="AE/PDE, SC" style="rounded=0;whiteSpace=wrap;html=1;" vertex="1" parent="0U-KoFeszgr7jK1-Ih7c-35">
          <mxGeometry x="430" y="130" width="120" height="30" as="geometry" />
        </mxCell>
        <mxCell id="0U-KoFeszgr7jK1-Ih7c-72" value="PDE, VE, MET" style="rounded=0;whiteSpace=wrap;html=1;" vertex="1" parent="0U-KoFeszgr7jK1-Ih7c-35">
          <mxGeometry x="630" y="130" width="120" height="30" as="geometry" />
        </mxCell>
        <mxCell id="0U-KoFeszgr7jK1-Ih7c-73" value="SC, QE" style="rounded=0;whiteSpace=wrap;html=1;" vertex="1" parent="0U-KoFeszgr7jK1-Ih7c-35">
          <mxGeometry x="850" y="130" width="120" height="30" as="geometry" />
        </mxCell>
        <mxCell id="0U-KoFeszgr7jK1-Ih7c-117" value="C/T = 30m" style="rounded=0;whiteSpace=wrap;html=1;" vertex="1" parent="0U-KoFeszgr7jK1-Ih7c-35">
          <mxGeometry x="230" y="170" width="120" height="20" as="geometry" />
        </mxCell>
        <mxCell id="0U-KoFeszgr7jK1-Ih7c-118" value="S/T =" style="rounded=0;whiteSpace=wrap;html=1;" vertex="1" parent="0U-KoFeszgr7jK1-Ih7c-35">
          <mxGeometry x="230" y="190" width="120" height="20" as="geometry" />
        </mxCell>
        <mxCell id="0U-KoFeszgr7jK1-Ih7c-119" value="Uptime =&amp;nbsp;" style="rounded=0;whiteSpace=wrap;html=1;" vertex="1" parent="0U-KoFeszgr7jK1-Ih7c-35">
          <mxGeometry x="230" y="210" width="120" height="20" as="geometry" />
        </mxCell>
        <mxCell id="0U-KoFeszgr7jK1-Ih7c-120" value="C/T =" style="rounded=0;whiteSpace=wrap;html=1;" vertex="1" parent="0U-KoFeszgr7jK1-Ih7c-35">
          <mxGeometry x="430" y="170" width="120" height="20" as="geometry" />
        </mxCell>
        <mxCell id="0U-KoFeszgr7jK1-Ih7c-121" value="S/T =" style="rounded=0;whiteSpace=wrap;html=1;" vertex="1" parent="0U-KoFeszgr7jK1-Ih7c-35">
          <mxGeometry x="430" y="190" width="120" height="20" as="geometry" />
        </mxCell>
        <mxCell id="0U-KoFeszgr7jK1-Ih7c-122" value="Uptime =&amp;nbsp;" style="rounded=0;whiteSpace=wrap;html=1;" vertex="1" parent="0U-KoFeszgr7jK1-Ih7c-35">
          <mxGeometry x="430" y="210" width="120" height="20" as="geometry" />
        </mxCell>
        <mxCell id="0U-KoFeszgr7jK1-Ih7c-123" value="C/T =" style="rounded=0;whiteSpace=wrap;html=1;" vertex="1" parent="0U-KoFeszgr7jK1-Ih7c-35">
          <mxGeometry x="630" y="170" width="120" height="20" as="geometry" />
        </mxCell>
        <mxCell id="0U-KoFeszgr7jK1-Ih7c-124" value="S/T =" style="rounded=0;whiteSpace=wrap;html=1;" vertex="1" parent="0U-KoFeszgr7jK1-Ih7c-35">
          <mxGeometry x="630" y="190" width="120" height="20" as="geometry" />
        </mxCell>
        <mxCell id="0U-KoFeszgr7jK1-Ih7c-125" value="Uptime =&amp;nbsp;" style="rounded=0;whiteSpace=wrap;html=1;" vertex="1" parent="0U-KoFeszgr7jK1-Ih7c-35">
          <mxGeometry x="630" y="210" width="120" height="20" as="geometry" />
        </mxCell>
        <mxCell id="0U-KoFeszgr7jK1-Ih7c-126" value="C/T =" style="rounded=0;whiteSpace=wrap;html=1;" vertex="1" parent="0U-KoFeszgr7jK1-Ih7c-35">
          <mxGeometry x="850" y="170" width="120" height="20" as="geometry" />
        </mxCell>
        <mxCell id="0U-KoFeszgr7jK1-Ih7c-127" value="S/T =" style="rounded=0;whiteSpace=wrap;html=1;" vertex="1" parent="0U-KoFeszgr7jK1-Ih7c-35">
          <mxGeometry x="850" y="190" width="120" height="20" as="geometry" />
        </mxCell>
        <mxCell id="0U-KoFeszgr7jK1-Ih7c-128" value="Uptime =&amp;nbsp;" style="rounded=0;whiteSpace=wrap;html=1;" vertex="1" parent="0U-KoFeszgr7jK1-Ih7c-35">
          <mxGeometry x="850" y="210" width="120" height="20" as="geometry" />
        </mxCell>
        <mxCell id="0U-KoFeszgr7jK1-Ih7c-41" value="Lead Time Ladder" style="swimlane;align=right;fontSize=20;" vertex="1" parent="1">
          <mxGeometry x="-600" y="760" width="1370" height="190" as="geometry" />
        </mxCell>
        <mxCell id="0U-KoFeszgr7jK1-Ih7c-96" value="" style="html=1;verticalLabelPosition=bottom;align=center;labelBackgroundColor=#ffffff;verticalAlign=top;strokeWidth=2;strokeColor=#0080F0;shadow=0;dashed=0;shape=mxgraph.ios7.icons.alarm_clock;fontSize=20;" vertex="1" parent="0U-KoFeszgr7jK1-Ih7c-41">
          <mxGeometry x="90" y="50" width="27" height="30" as="geometry" />
        </mxCell>
        <mxCell id="0U-KoFeszgr7jK1-Ih7c-98" value="" style="line;strokeWidth=2;html=1;fontSize=20;align=right;" vertex="1" parent="0U-KoFeszgr7jK1-Ih7c-41">
          <mxGeometry x="120" y="80" width="100" height="10" as="geometry" />
        </mxCell>
        <mxCell id="0U-KoFeszgr7jK1-Ih7c-99" value="3d" style="text;html=1;align=center;verticalAlign=middle;resizable=0;points=[];autosize=1;strokeColor=none;fontSize=20;" vertex="1" parent="0U-KoFeszgr7jK1-Ih7c-41">
          <mxGeometry x="150" y="50" width="40" height="30" as="geometry" />
        </mxCell>
        <mxCell id="0U-KoFeszgr7jK1-Ih7c-100" value="" style="line;strokeWidth=2;html=1;fontSize=20;align=right;rotation=90;" vertex="1" parent="0U-KoFeszgr7jK1-Ih7c-41">
          <mxGeometry x="190" y="110" width="60" height="10" as="geometry" />
        </mxCell>
        <mxCell id="0U-KoFeszgr7jK1-Ih7c-101" value="" style="line;strokeWidth=2;html=1;fontSize=20;align=right;" vertex="1" parent="0U-KoFeszgr7jK1-Ih7c-41">
          <mxGeometry x="220" y="140" width="120" height="10" as="geometry" />
        </mxCell>
        <mxCell id="0U-KoFeszgr7jK1-Ih7c-102" value="" style="line;strokeWidth=2;html=1;fontSize=20;align=right;rotation=90;" vertex="1" parent="0U-KoFeszgr7jK1-Ih7c-41">
          <mxGeometry x="310" y="110" width="60" height="10" as="geometry" />
        </mxCell>
        <mxCell id="0U-KoFeszgr7jK1-Ih7c-103" value="" style="line;strokeWidth=2;html=1;fontSize=20;align=right;" vertex="1" parent="0U-KoFeszgr7jK1-Ih7c-41">
          <mxGeometry x="340" y="80" width="80" height="10" as="geometry" />
        </mxCell>
        <mxCell id="0U-KoFeszgr7jK1-Ih7c-104" value="" style="line;strokeWidth=2;html=1;fontSize=20;align=right;rotation=90;" vertex="1" parent="0U-KoFeszgr7jK1-Ih7c-41">
          <mxGeometry x="390" y="110" width="60" height="10" as="geometry" />
        </mxCell>
        <mxCell id="0U-KoFeszgr7jK1-Ih7c-105" value="" style="line;strokeWidth=2;html=1;fontSize=20;align=right;" vertex="1" parent="0U-KoFeszgr7jK1-Ih7c-41">
          <mxGeometry x="420" y="140" width="120" height="10" as="geometry" />
        </mxCell>
        <mxCell id="0U-KoFeszgr7jK1-Ih7c-106" value="" style="line;strokeWidth=2;html=1;fontSize=20;align=right;rotation=90;" vertex="1" parent="0U-KoFeszgr7jK1-Ih7c-41">
          <mxGeometry x="510" y="110" width="60" height="10" as="geometry" />
        </mxCell>
        <mxCell id="0U-KoFeszgr7jK1-Ih7c-107" value="" style="line;strokeWidth=2;html=1;fontSize=20;align=right;" vertex="1" parent="0U-KoFeszgr7jK1-Ih7c-41">
          <mxGeometry x="540" y="80" width="80" height="10" as="geometry" />
        </mxCell>
        <mxCell id="0U-KoFeszgr7jK1-Ih7c-109" value="" style="line;strokeWidth=2;html=1;fontSize=20;align=right;rotation=90;" vertex="1" parent="0U-KoFeszgr7jK1-Ih7c-41">
          <mxGeometry x="590" y="110" width="60" height="10" as="geometry" />
        </mxCell>
        <mxCell id="0U-KoFeszgr7jK1-Ih7c-110" value="" style="line;strokeWidth=2;html=1;fontSize=20;align=right;" vertex="1" parent="0U-KoFeszgr7jK1-Ih7c-41">
          <mxGeometry x="620" y="140" width="120" height="10" as="geometry" />
        </mxCell>
        <mxCell id="0U-KoFeszgr7jK1-Ih7c-111" value="" style="line;strokeWidth=2;html=1;fontSize=20;align=right;rotation=90;" vertex="1" parent="0U-KoFeszgr7jK1-Ih7c-41">
          <mxGeometry x="710" y="110" width="60" height="10" as="geometry" />
        </mxCell>
        <mxCell id="0U-KoFeszgr7jK1-Ih7c-112" value="" style="line;strokeWidth=2;html=1;fontSize=20;align=right;" vertex="1" parent="0U-KoFeszgr7jK1-Ih7c-41">
          <mxGeometry x="740" y="80" width="100" height="10" as="geometry" />
        </mxCell>
        <mxCell id="0U-KoFeszgr7jK1-Ih7c-113" value="" style="line;strokeWidth=2;html=1;fontSize=20;align=right;rotation=90;" vertex="1" parent="0U-KoFeszgr7jK1-Ih7c-41">
          <mxGeometry x="810" y="110" width="60" height="10" as="geometry" />
        </mxCell>
        <mxCell id="0U-KoFeszgr7jK1-Ih7c-114" value="" style="line;strokeWidth=2;html=1;fontSize=20;align=right;" vertex="1" parent="0U-KoFeszgr7jK1-Ih7c-41">
          <mxGeometry x="840" y="140" width="120" height="10" as="geometry" />
        </mxCell>
        <mxCell id="0U-KoFeszgr7jK1-Ih7c-115" value="" style="line;strokeWidth=2;html=1;fontSize=20;align=right;rotation=90;" vertex="1" parent="0U-KoFeszgr7jK1-Ih7c-41">
          <mxGeometry x="930" y="110" width="60" height="10" as="geometry" />
        </mxCell>
        <mxCell id="0U-KoFeszgr7jK1-Ih7c-116" value="" style="line;strokeWidth=2;html=1;fontSize=20;align=right;" vertex="1" parent="0U-KoFeszgr7jK1-Ih7c-41">
          <mxGeometry x="960" y="80" width="190" height="10" as="geometry" />
        </mxCell>
        <mxCell id="0U-KoFeszgr7jK1-Ih7c-66" value="" style="shape=flexArrow;endArrow=classic;html=1;rounded=0;edgeStyle=orthogonalEdgeStyle;entryX=0;entryY=0;entryDx=70;entryDy=80;entryPerimeter=0;exitX=1;exitY=0.5;exitDx=0;exitDy=0;" edge="1" parent="1" source="0U-KoFeszgr7jK1-Ih7c-52" target="0U-KoFeszgr7jK1-Ih7c-6">
          <mxGeometry width="50" height="50" relative="1" as="geometry">
            <mxPoint x="90" y="380" as="sourcePoint" />
            <mxPoint x="140" y="330" as="targetPoint" />
          </mxGeometry>
        </mxCell>
        <mxCell id="0U-KoFeszgr7jK1-Ih7c-67" value="Deployment to&lt;br&gt;Production" style="edgeLabel;html=1;align=center;verticalAlign=middle;resizable=0;points=[];fontSize=16;" vertex="1" connectable="0" parent="0U-KoFeszgr7jK1-Ih7c-66">
          <mxGeometry x="-0.5056" relative="1" as="geometry">
            <mxPoint x="64" y="-30" as="offset" />
          </mxGeometry>
        </mxCell>
        <mxCell id="0U-KoFeszgr7jK1-Ih7c-68" value="" style="shape=flexArrow;endArrow=classic;html=1;rounded=0;edgeStyle=orthogonalEdgeStyle;exitX=0.458;exitY=1.025;exitDx=0;exitDy=0;exitPerimeter=0;entryX=0;entryY=0.5;entryDx=0;entryDy=0;" edge="1" parent="1" source="0U-KoFeszgr7jK1-Ih7c-9" target="0U-KoFeszgr7jK1-Ih7c-49">
          <mxGeometry width="50" height="50" relative="1" as="geometry">
            <mxPoint x="90" y="380" as="sourcePoint" />
            <mxPoint x="140" y="330" as="targetPoint" />
            <Array as="points">
              <mxPoint x="-515" y="530" />
            </Array>
          </mxGeometry>
        </mxCell>
        <mxCell id="0U-KoFeszgr7jK1-Ih7c-69" value="Product&lt;br&gt;Capabilities" style="edgeLabel;html=1;align=center;verticalAlign=middle;resizable=0;points=[];fontSize=16;" vertex="1" connectable="0" parent="0U-KoFeszgr7jK1-Ih7c-68">
          <mxGeometry x="0.4383" relative="1" as="geometry">
            <mxPoint x="40" y="-30" as="offset" />
          </mxGeometry>
        </mxCell>
        <mxCell id="0U-KoFeszgr7jK1-Ih7c-92" style="edgeStyle=orthogonalEdgeStyle;rounded=0;orthogonalLoop=1;jettySize=auto;html=1;fontSize=12;entryX=0.5;entryY=1;entryDx=0;entryDy=0;" edge="1" parent="1" source="0U-KoFeszgr7jK1-Ih7c-49">
          <mxGeometry relative="1" as="geometry">
            <mxPoint x="-60" y="300" as="targetPoint" />
            <Array as="points">
              <mxPoint x="-300" y="350" />
              <mxPoint x="-60" y="350" />
            </Array>
          </mxGeometry>
        </mxCell>
        <mxCell id="0U-KoFeszgr7jK1-Ih7c-93" style="edgeStyle=orthogonalEdgeStyle;rounded=0;orthogonalLoop=1;jettySize=auto;html=1;fontSize=12;" edge="1" parent="1" source="0U-KoFeszgr7jK1-Ih7c-50">
          <mxGeometry relative="1" as="geometry">
            <mxPoint x="-60" y="300" as="targetPoint" />
            <Array as="points">
              <mxPoint x="-100" y="350" />
              <mxPoint x="-60" y="350" />
            </Array>
          </mxGeometry>
        </mxCell>
        <mxCell id="0U-KoFeszgr7jK1-Ih7c-94" style="edgeStyle=orthogonalEdgeStyle;rounded=0;orthogonalLoop=1;jettySize=auto;html=1;entryX=0.5;entryY=1;entryDx=0;entryDy=0;fontSize=12;" edge="1" parent="1" source="0U-KoFeszgr7jK1-Ih7c-51">
          <mxGeometry relative="1" as="geometry">
            <mxPoint x="-60" y="300" as="targetPoint" />
            <Array as="points">
              <mxPoint x="100" y="350" />
              <mxPoint x="-60" y="350" />
            </Array>
          </mxGeometry>
        </mxCell>
        <mxCell id="0U-KoFeszgr7jK1-Ih7c-95" style="edgeStyle=orthogonalEdgeStyle;rounded=0;orthogonalLoop=1;jettySize=auto;html=1;fontSize=12;" edge="1" parent="1" source="0U-KoFeszgr7jK1-Ih7c-52">
          <mxGeometry relative="1" as="geometry">
            <mxPoint x="-60" y="300" as="targetPoint" />
            <Array as="points">
              <mxPoint x="320" y="350" />
              <mxPoint x="-60" y="350" />
            </Array>
          </mxGeometry>
        </mxCell>
      </root>
    </mxGraphModel>
  </diagram>
</mxfile>
